<svg width="32" height="32" viewBox="0 0 32 32" fill="none" xmlns="http://www.w3.org/2000/svg">
<g clip-path="url(#clip0_672_458)">
<rect width="32" height="32" fill="black"/>
<path d="M32 0H0V32H32V0Z" fill="white"/>
<path d="M23.2614 9.41287C20.9056 9.41287 17.6078 11.086 16.8661 14.5334H2.53286V20.6042L5.62202 19.4305V17.2369H7.70815V19.4305L10.6625 20.6042V17.2369H16.8113C17.4455 20.8866 20.8466 22.5871 23.2614 22.5871C25.9313 22.5871 29.7853 20.5094 29.7853 16.0105C29.7853 11.5116 25.9313 9.41287 23.2614 9.41287ZM23.2614 19.6433C21.7274 19.6433 20.0985 18.4064 20.0985 16.0084C20.0985 13.6104 21.7295 12.3503 23.2614 12.3503C24.7934 12.3503 26.4012 13.5872 26.4012 16.0084C26.4012 18.4296 24.7681 19.6433 23.2614 19.6433Z" fill="black"/>
</g>
<defs>
<clipPath id="clip0_672_458">
<rect width="32" height="32" fill="white"/>
</clipPath>
</defs>
</svg>
